<?xml version="1.0" standalone="no"?>
<!DOCTYPE svg PUBLIC "-//W3C//DTD SVG 20010904//EN"
 "http://www.w3.org/TR/2001/REC-SVG-20010904/DTD/svg10.dtd">
<svg version="1.0" xmlns="http://www.w3.org/2000/svg"
 width="100.000000pt" height="100.000000pt" viewBox="0 0 100.000000 100.000000"
 preserveAspectRatio="xMidYMid meet">
<metadata>
Created by potrace 1.11, written by Peter Selinger 2001-2013
</metadata>
<g transform="translate(0.000000,100.000000) scale(0.100000,-0.100000)"
fill="#000000" stroke="none">
<path d="M382 778 c-30 -128 -32 -140 -22 -159 14 -25 46 -26 34 -1 -11 23 -9
87 5 146 6 28 7 54 3 58 -4 4 -14 -16 -20 -44z"/>
<path d="M486 697 c-20 -58 -19 -88 3 -95 10 -3 12 1 8 19 -3 13 -1 42 4 65
17 65 6 72 -15 11z"/>
<path d="M5 598 c-3 -34 -5 -182 -3 -328 l3 -265 495 0 495 0 3 260 c2 143 0
288 -3 323 l-7 63 -30 -43 c-43 -60 -80 -98 -89 -92 -5 3 -6 -3 -2 -12 4 -12
3 -15 -5 -10 -14 8 -44 -18 -34 -29 4 -4 -4 -2 -18 6 -21 11 -22 14 -7 17 21
4 21 4 3 47 -8 18 -23 38 -33 44 -12 6 -122 10 -278 11 l-258 0 8 -57 c4 -32
8 -68 10 -80 4 -27 -13 -22 -75 23 -54 39 -108 95 -143 147 l-25 39 -7 -64z
m743 -54 c18 -5 22 -13 22 -43 0 -42 -14 -61 -44 -61 -47 1 -75 49 -51 86 16
24 32 28 73 18z m-162 -69 c-4 -11 2 -15 25 -15 26 0 29 -3 24 -21 -4 -13 -3
-19 3 -15 5 3 17 -3 27 -14 10 -11 13 -20 7 -20 -6 0 -17 -3 -26 -6 -10 -4
-16 -1 -16 9 0 10 -8 13 -26 9 -21 -4 -25 -1 -24 14 4 34 0 46 -12 41 -7 -2
-22 -1 -33 4 -18 7 -17 8 7 8 15 1 30 6 33 11 10 15 18 12 11 -5z m-196 -23
c0 -15 -2 -15 -10 -2 -13 20 -13 33 0 25 6 -3 10 -14 10 -23z m-83 -39 c-3
-10 -5 -4 -5 12 0 17 2 24 5 18 2 -7 2 -21 0 -30z m33 27 c0 -5 -2 -10 -4 -10
-3 0 -8 5 -11 10 -3 6 -1 10 4 10 6 0 11 -4 11 -10z m457 4 c-3 -3 -12 -4 -19
-1 -8 3 -5 6 6 6 11 1 17 -2 13 -5z m-287 -31 c-14 -3 -28 -10 -32 -17 -5 -7
-8 -7 -8 0 0 17 12 24 39 23 l26 -2 -25 -4z m220 -3 c0 -5 -9 -10 -20 -10 -11
0 -20 5 -20 10 0 6 9 10 20 10 11 0 20 -4 20 -10z m-310 -50 c0 -5 -2 -10 -4
-10 -3 0 -8 5 -11 10 -3 6 -1 10 4 10 6 0 11 -4 11 -10z m157 -32 c-3 -7 -5
-2 -5 12 0 14 2 19 5 13 2 -7 2 -19 0 -25z m33 17 c0 -8 -2 -15 -4 -15 -2 0
-6 7 -10 15 -3 8 -1 15 4 15 6 0 10 -7 10 -15z m-83 -52 c-3 -10 -5 -4 -5 12
0 17 2 24 5 18 2 -7 2 -21 0 -30z m-50 -5 c-3 -7 -5 -2 -5 12 0 14 2 19 5 13
2 -7 2 -19 0 -25z"/>
</g>
</svg>
